Coordinates
version=1
nRows=60
nColumns=12
inDegrees=yes

Units are S.I. units (second, meters, Newtons, ...)
Angles are in degrees

endheader
time	SC_y	SC_z	SC_x	AC_y	AC_z	AC_x	GH_y	GH_z	GH_yy	EL_x	PS_y
       0.0              -32.98         0.3532          3.157          67.28         -4.288         -16.88          150.7          38.05         -80.27          73.24          104.7
 9.728e-07              -32.98         0.3554          3.167          67.28         -4.288         -16.88          150.6          38.05         -80.27          73.23          104.7
 1.946e-06              -32.98         0.3577          3.177          67.28         -4.288         -16.88          150.6          38.05         -80.28          73.22          104.7
 2.918e-06              -32.98         0.3602          3.188          67.28         -4.289         -16.88          150.5          38.05         -80.29          73.21          104.7
 3.891e-06              -32.99         0.3629          3.199          67.28         -4.289         -16.87          150.5          38.05          -80.3           73.2          104.7
 4.864e-06              -32.99         0.3658          3.211          67.28         -4.289         -16.87          150.5          38.05         -80.32          73.19          104.7
 5.837e-06              -32.99         0.3688          3.224          67.28          -4.29         -16.87          150.4          38.05         -80.33          73.18          104.7
  6.81e-06              -32.99         0.3721          3.238          67.28          -4.29         -16.87          150.3          38.05         -80.34          73.17          104.7
 7.783e-06               -33.0         0.3755          3.253          67.28          -4.29         -16.86          150.3          38.05         -80.35          73.15          104.7
 8.755e-06               -33.0         0.3793          3.269          67.28         -4.291         -16.86          150.2          38.05         -80.37          73.14          104.7
 9.728e-06               -33.0         0.3833          3.286          67.28         -4.291         -16.86          150.2          38.05         -80.39          73.13          104.7
  1.07e-05              -33.01         0.3876          3.305          67.28         -4.292         -16.85          150.1          38.05          -80.4          73.11          104.7
 1.167e-05              -33.01         0.3923          3.324          67.28         -4.292         -16.85          150.0          38.05         -80.42          73.09          104.7
 1.265e-05              -33.02         0.3973          3.346          67.28         -4.293         -16.84          149.9          38.05         -80.44          73.07          104.7
 1.362e-05              -33.02         0.4027          3.369          67.28         -4.294         -16.84          149.9          38.05         -80.46          73.05          104.7
 1.459e-05              -33.03         0.4086          3.394          67.28         -4.294         -16.84          149.8          38.05         -80.49          73.03          104.7
 1.557e-05              -33.03          0.415          3.422          67.27         -4.295         -16.83          149.7          38.05         -80.51          73.01          104.7
 1.654e-05              -33.04          0.422          3.452          67.27         -4.296         -16.82          149.5          38.05         -80.54          72.98          104.7
 1.751e-05              -33.04         0.4296          3.484          67.27         -4.297         -16.82          149.4          38.05         -80.57          72.95          104.7
 1.848e-05              -33.05          0.438           3.52          67.27         -4.298         -16.81          149.3          38.05          -80.6          72.92          104.7
 1.946e-05              -33.06         0.4472          3.559          67.27         -4.299          -16.8          149.1          38.06         -80.64          72.89          104.7
 2.043e-05              -33.07         0.4572          3.602          67.27           -4.3         -16.79          149.0          38.06         -80.68          72.85          104.7
  2.14e-05              -33.08         0.4684           3.65          67.27         -4.301         -16.78          148.8          38.06         -80.72          72.81          104.7
 2.237e-05              -33.09         0.4807          3.703          67.27         -4.303         -16.77          148.6          38.06         -80.77          72.76          104.7
 2.335e-05               -33.1         0.4945          3.762          67.27         -4.305         -16.76          148.4          38.06         -80.83          72.71          104.7
 2.432e-05              -33.12         0.5098          3.827          67.27         -4.306         -16.75          148.1          38.06         -80.89          72.66          104.7
 2.529e-05              -33.13         0.5269            3.9          67.26         -4.308         -16.73          147.8          38.06         -80.96          72.59          104.7
 2.627e-05              -33.15         0.5462          3.983          67.26         -4.311         -16.72          147.5          38.06         -81.04          72.52          104.7
 2.724e-05              -33.17         0.5681          4.076          67.26         -4.313          -16.7          147.2          38.06         -81.12          72.44          104.7
 2.821e-05              -33.19         0.5928          4.182          67.26         -4.316         -16.68          146.8          38.06         -81.22          72.35          104.7
 2.918e-05              -33.21         0.6211          4.303          67.26          -4.32         -16.65          146.3          38.06         -81.33          72.25          104.7
 3.016e-05              -33.24         0.6535          4.442          67.25         -4.323         -16.62          145.8          38.06         -81.46          72.13          104.7
 3.113e-05              -33.27          0.691          4.602          67.25         -4.328         -16.59          145.2          38.06         -81.61          71.99          104.7
  3.21e-05              -33.31         0.7345          4.788          67.25         -4.333         -16.55          144.5          38.06         -81.79          71.83          104.7
 3.308e-05              -33.36         0.7854          5.006          67.24         -4.339         -16.51          143.6          38.06         -81.99          71.64          104.7
 3.405e-05              -33.41         0.8454          5.262          67.24         -4.346         -16.46          142.7          38.07         -82.23          71.42          104.7
 3.502e-05              -33.47         0.9168          5.567          67.23         -4.355          -16.4          141.5          38.07         -82.51          71.15          104.7
 3.599e-05              -33.55          1.002          5.933          67.22         -4.365         -16.32          140.1          38.07         -82.86          70.84          104.7
 3.697e-05              -33.64          1.106          6.375          67.21         -4.377         -16.24          138.5          38.07         -83.27          70.46          104.7
 3.794e-05              -33.75          1.232          6.916           67.2         -4.392         -16.13          136.4          38.08         -83.77          69.99          104.8
 3.891e-05              -33.89          1.388          7.583          67.19          -4.41         -15.99          133.9          38.08          -84.4          69.41          104.8
 3.989e-05              -34.06          1.583          8.414          67.17         -4.433         -15.83          130.7          38.09         -85.17          68.69          104.8
 4.086e-05              -34.27          1.828          9.462          67.15         -4.462         -15.61          126.8           38.1         -86.15          67.79          104.8
 4.183e-05              -34.54          2.139          10.79          67.13         -4.499         -15.35          121.7           38.1         -87.39          66.64          104.8
  4.28e-05              -34.89          2.538           12.5          67.09         -4.546          -15.0          115.2          38.12         -88.98          65.16          104.9
 4.378e-05              -35.34          3.049          14.69          67.05         -4.607         -14.56          107.0          38.13         -91.03          63.27          104.9
 4.475e-05              -35.92          3.703          17.48          66.99         -4.684          -14.0          96.37          38.15         -93.64          60.86          105.0
 4.572e-05              -36.64          4.524          20.99          66.92         -4.781         -13.29          83.05          38.17         -96.92          57.82          105.1
  4.67e-05              -37.51          5.526          25.28          66.83           -4.9         -12.43          66.82           38.2         -100.9          54.12          105.2
 4.767e-05              -38.53          6.686          30.24          66.73         -5.037         -11.43          48.01          38.24         -105.5          49.83          105.3
 4.864e-05              -39.64          7.943          35.61          66.62         -5.186         -10.35          27.64          38.27         -110.6          45.18          105.5
 4.961e-05              -40.74            9.2          40.99          66.51         -5.335         -9.273          7.271          38.31         -115.6          40.54          105.6
 5.059e-05              -41.76          10.36          45.95          66.41         -5.472         -8.274         -11.54          38.34         -120.2          36.25          105.7
 5.156e-05              -42.63          11.36          50.23          66.33          -5.59         -7.413         -27.77          38.37         -124.2          32.55          105.8
 5.253e-05              -43.36          12.18          53.75          66.25         -5.688         -6.706         -41.09           38.4         -127.5          29.51          105.9
 5.351e-05              -43.93          12.84          56.54           66.2         -5.765         -6.144         -51.68          38.41         -130.1           27.1          106.0
 5.448e-05              -44.38          13.35          58.73          66.15         -5.825         -5.704         -59.97          38.43         -132.1          25.21          106.0
 5.545e-05              -44.73          13.75          60.43          66.12         -5.873         -5.361         -66.43          38.44         -133.7          23.73          106.1
 5.642e-05               -45.0          14.06          61.76          66.09         -5.909         -5.093         -71.48          38.45         -135.0          22.58          106.1
  5.74e-05              -45.21           14.3          62.81          66.07         -5.938         -4.882         -75.45          38.46         -136.0          21.68          106.1
